<svg width="32" height="32" viewBox="0 0 32 32" fill="none" xmlns="http://www.w3.org/2000/svg">
<path d="M25.3336 21.3333V8.66667C25.3336 7.2 24.1336 6 22.667 6H15.3336" stroke="#482084" stroke-width="1.6" stroke-linecap="round" stroke-linejoin="round"/>
<path d="M18.6664 2.66663L14.6664 5.99996L18.6664 9.33329" stroke="#482084" stroke-width="1.6" stroke-linecap="round" stroke-linejoin="round"/>
<path d="M25.3336 29.3334C27.5428 29.3334 29.3336 27.5425 29.3336 25.3334C29.3336 23.1242 27.5428 21.3334 25.3336 21.3334C23.1245 21.3334 21.3336 23.1242 21.3336 25.3334C21.3336 27.5425 23.1245 29.3334 25.3336 29.3334Z" fill="#EDE9F3" stroke="#482084" stroke-width="1.6" stroke-linecap="round" stroke-linejoin="round"/>
<path d="M6.66638 10.6666V23.3333C6.66638 24.8 7.86638 26 9.33305 26H16.6664" stroke="#482084" stroke-width="1.6" stroke-linecap="round" stroke-linejoin="round"/>
<path d="M13.3336 29.3333L17.3336 26L13.3336 22.6666" stroke="#482084" stroke-width="1.6" stroke-linecap="round" stroke-linejoin="round"/>
<path d="M6.66638 10.6666C8.87552 10.6666 10.6664 8.87577 10.6664 6.66663C10.6664 4.45749 8.87552 2.66663 6.66638 2.66663C4.45724 2.66663 2.66638 4.45749 2.66638 6.66663C2.66638 8.87577 4.45724 10.6666 6.66638 10.6666Z" fill="#EDE9F3" stroke="#482084" stroke-width="1.6" stroke-linecap="round" stroke-linejoin="round"/>
</svg>
