<svg width="40" height="40" viewBox="0 0 40 40" fill="none" xmlns="http://www.w3.org/2000/svg">
<rect width="40" height="40" rx="20" fill="#F3F3F5"/>
<path d="M16.5 17C18.433 17 20 15.433 20 13.5C20 11.567 18.433 10 16.5 10C14.567 10 13 11.567 13 13.5C13 15.433 14.567 17 16.5 17Z" stroke="#241042" stroke-width="1.5" stroke-linecap="round" stroke-linejoin="round"/>
<path d="M10.5 25.5002C10.5 22.1831 13.5529 19.5002 17.3115 19.5002C18.0727 19.5002 18.8102 19.6117 19.5 19.8174" stroke="#241042" stroke-width="1.5" stroke-linecap="round" stroke-linejoin="round"/>
<path d="M18.25 25.05V23.95C18.25 23.3 18.7813 22.7625 19.4375 22.7625C20.5688 22.7625 21.0313 21.9625 20.4625 20.9813C20.1375 20.4188 20.3313 19.6875 20.9 19.3625L21.9813 18.7438C22.475 18.45 23.1125 18.625 23.4063 19.1188L23.475 19.2375C24.0375 20.2188 24.9625 20.2188 25.5313 19.2375L25.6 19.1188C25.8938 18.625 26.5313 18.45 27.025 18.7438L28.1063 19.3625C28.675 19.6875 28.8688 20.4188 28.5438 20.9813C27.975 21.9625 28.4375 22.7625 29.5688 22.7625C30.2188 22.7625 30.7563 23.2938 30.7563 23.95V25.05C30.7563 25.7 30.225 26.2375 29.5688 26.2375C28.4375 26.2375 27.975 27.0375 28.5438 28.0188C28.8688 28.5875 28.675 29.3125 28.1063 29.6375L27.025 30.2563C26.5313 30.55 25.8938 30.375 25.6 29.8813L25.5313 29.7625C24.9688 28.7813 24.0438 28.7813 23.475 29.7625L23.4063 29.8813C23.1125 30.375 22.475 30.55 21.9813 30.2563L20.9 29.6375C20.3313 29.3125 20.1375 28.5813 20.4625 28.0188C21.0313 27.0375 20.5688 26.2375 19.4375 26.2375C18.7813 26.2375 18.25 25.7 18.25 25.05Z" fill="white" stroke="#241042" stroke-width="1.40625" stroke-miterlimit="10" stroke-linecap="round" stroke-linejoin="round"/>
<path d="M24.5 26.375C25.5355 26.375 26.375 25.5355 26.375 24.5C26.375 23.4645 25.5355 22.625 24.5 22.625C23.4645 22.625 22.625 23.4645 22.625 24.5C22.625 25.5355 23.4645 26.375 24.5 26.375Z" fill="white" stroke="#241042" stroke-width="1.40625" stroke-miterlimit="10" stroke-linecap="round" stroke-linejoin="round"/>
</svg>
