<svg width="33" height="33" viewBox="0 0 33 33" fill="none" xmlns="http://www.w3.org/2000/svg">
<rect x="0.5" y="0.411865" width="32" height="32" rx="16" fill="#3A86FF"/>
<path d="M13.6999 14.012C15.2463 14.012 16.4999 12.7584 16.4999 11.212C16.4999 9.66559 15.2463 8.41199 13.6999 8.41199C12.1535 8.41199 10.8999 9.66559 10.8999 11.212C10.8999 12.7584 12.1535 14.012 13.6999 14.012Z" stroke="white" stroke-width="1.2" stroke-linecap="round" stroke-linejoin="round"/>
<path d="M8.8999 20.812C8.8999 18.1582 11.3422 16.012 14.3491 16.012C14.958 16.012 15.548 16.1011 16.0999 16.2657" stroke="white" stroke-width="1.2" stroke-linecap="round" stroke-linejoin="round"/>
<path d="M15.0999 20.4521V19.5721C15.0999 19.0521 15.5249 18.6221 16.0499 18.6221C16.9549 18.6221 17.3249 17.9821 16.8699 17.1971C16.6099 16.7471 16.7649 16.1621 17.2199 15.9021L18.0849 15.4071C18.4799 15.1721 18.9899 15.3121 19.2249 15.7071L19.2799 15.8021C19.7299 16.5871 20.4699 16.5871 20.9249 15.8021L20.9799 15.7071C21.2149 15.3121 21.7249 15.1721 22.1199 15.4071L22.9849 15.9021C23.4399 16.1621 23.5949 16.7471 23.3349 17.1971C22.8799 17.9821 23.2499 18.6221 24.1549 18.6221C24.6749 18.6221 25.1049 19.0471 25.1049 19.5721V20.4521C25.1049 20.9721 24.6799 21.4021 24.1549 21.4021C23.2499 21.4021 22.8799 22.0421 23.3349 22.8271C23.5949 23.2821 23.4399 23.8621 22.9849 24.1221L22.1199 24.6171C21.7249 24.8521 21.2149 24.7121 20.9799 24.3171L20.9249 24.2221C20.4749 23.4371 19.7349 23.4371 19.2799 24.2221L19.2249 24.3171C18.9899 24.7121 18.4799 24.8521 18.0849 24.6171L17.2199 24.1221C16.7649 23.8621 16.6099 23.2771 16.8699 22.8271C17.3249 22.0421 16.9549 21.4021 16.0499 21.4021C15.5249 21.4021 15.0999 20.9721 15.0999 20.4521Z" fill="white" fill-opacity="0.22" stroke="white" stroke-width="1.2" stroke-miterlimit="10" stroke-linecap="round" stroke-linejoin="round"/>
<path d="M20.0999 21.5121C20.9283 21.5121 21.5999 20.8405 21.5999 20.0121C21.5999 19.1837 20.9283 18.5121 20.0999 18.5121C19.2714 18.5121 18.5999 19.1837 18.5999 20.0121C18.5999 20.8405 19.2714 21.5121 20.0999 21.5121Z" fill="#3A86FF" stroke="white" stroke-width="1.2" stroke-miterlimit="10" stroke-linecap="round" stroke-linejoin="round"/>
</svg>
