<svg width="33" height="32" viewBox="0 0 33 32" fill="none" xmlns="http://www.w3.org/2000/svg">
<rect x="0.5" width="32" height="32" rx="16" fill="#F3F3F5"/>
<path d="M24.2776 16.656C24.2776 20.8134 20.9074 24.1836 16.75 24.1836C12.5926 24.1836 9.22243 20.8134 9.22243 16.656C9.22243 12.4986 12.5926 9.12843 16.75 9.12843C20.9074 9.12843 24.2776 12.4986 24.2776 16.656Z" fill="#C7C5CE" fill-opacity="0.55" stroke="#241042" stroke-width="1.19485"/>
<path d="M16.5 15.5999C17.5294 15.5999 18.364 14.7654 18.364 13.7359C18.364 12.7065 17.5294 11.8719 16.5 11.8719C15.4705 11.8719 14.636 12.7065 14.636 13.7359C14.636 14.7654 15.4705 15.5999 16.5 15.5999Z" stroke="#241042" stroke-width="1.19485" stroke-linecap="round" stroke-linejoin="round"/>
<path d="M19.7 20.1279C19.7 18.6879 18.268 17.5199 16.5 17.5199C14.732 17.5199 13.3 18.6879 13.3 20.1279" stroke="#241042" stroke-width="1.19485" stroke-linecap="round" stroke-linejoin="round"/>
</svg>
