<svg width="32" height="32" viewBox="0 0 32 32" fill="none" xmlns="http://www.w3.org/2000/svg">
<path d="M17.6795 4.79988L6.73288 16.3865C6.31955 16.8265 5.91955 17.6932 5.83955 18.2932L5.34621 22.6132C5.17288 24.1732 6.29288 25.2399 7.83955 24.9732L12.1329 24.2399C12.7329 24.1332 13.5729 23.6932 13.9862 23.2399L24.9329 11.6532C26.8262 9.65321 27.6795 7.37322 24.7329 4.58655C21.7995 1.82655 19.5729 2.79988 17.6795 4.79988Z" fill="#FFF2E6" stroke="#FF8100" stroke-width="1.6" stroke-miterlimit="10" stroke-linecap="round" stroke-linejoin="round"/>
<path d="M15.8535 6.73267C16.4268 10.4127 19.4135 13.226 23.1202 13.5993L15.8535 6.73267Z" fill="#FFF2E6"/>
<path d="M15.8535 6.73267C16.4268 10.4127 19.4135 13.226 23.1202 13.5993" stroke="#FF8100" stroke-width="1.6" stroke-miterlimit="10" stroke-linecap="round" stroke-linejoin="round"/>
<path d="M4 29.3339H28" stroke="#FF8100" stroke-width="1.6" stroke-miterlimit="10" stroke-linecap="round" stroke-linejoin="round"/>
</svg>
