<svg width="40" height="40" viewBox="0 0 40 40" fill="none" xmlns="http://www.w3.org/2000/svg">
<rect width="40" height="40" rx="20" fill="#F3F3F5"/>
<circle cx="20" cy="21" r="11" fill="#C7C5CE" fill-opacity="0.55"/>
<path d="M20.6387 12.4663H19.4054C18.7271 12.4663 18.1721 11.9113 18.1721 11.2329V9.99958C18.1721 9.32124 18.7271 8.76624 19.4054 8.76624H20.6387C21.3171 8.76624 21.8721 9.32124 21.8721 9.99958V11.2329C21.8721 11.9113 21.3171 12.4663 20.6387 12.4663Z" stroke="#241042" stroke-width="1.5" stroke-linecap="round" stroke-linejoin="round"/>
<path d="M9.23133 23.573H10.4647C11.143 23.573 11.698 23.018 11.698 22.3397V21.1063C11.698 20.428 11.143 19.8729 10.4647 19.8729H9.23133C8.55299 19.8729 7.99799 20.428 7.99799 21.1063V22.3397C7.99799 23.018 8.55299 23.573 9.23133 23.573Z" stroke="#241042" stroke-width="1.5" stroke-linecap="round" stroke-linejoin="round"/>
<path d="M30.766 23.573H29.5326C28.8543 23.573 28.2993 23.018 28.2993 22.3397V21.1063C28.2993 20.428 28.8543 19.8729 29.5326 19.8729H30.766C31.4443 19.8729 31.9993 20.428 31.9993 21.1063V22.3397C31.9993 23.018 31.4443 23.573 30.766 23.573Z" stroke="#241042" stroke-width="1.5" stroke-linecap="round" stroke-linejoin="round"/>
<path d="M17.6002 9.96619C12.8729 10.5339 9.20032 14.6084 9.20032 19.5661" stroke="#241042" stroke-width="1.5" stroke-linecap="round" stroke-linejoin="round"/>
<path d="M30.8 19.5661C30.8 14.621 27.1305 10.5591 22.4001 9.96619" stroke="#241042" stroke-width="1.5" stroke-linecap="round" stroke-linejoin="round"/>
<path d="M19.9999 20.66C21.2867 20.66 22.3299 19.6168 22.3299 18.33C22.3299 17.0431 21.2867 16 19.9999 16C18.7131 16 17.6699 17.0431 17.6699 18.33C17.6699 19.6168 18.7131 20.66 19.9999 20.66Z" stroke="#241042" stroke-width="1.5" stroke-linecap="round" stroke-linejoin="round"/>
<path d="M24 26.32C24 24.52 22.21 23.0601 20 23.0601C17.79 23.0601 16 24.52 16 26.32" stroke="#241042" stroke-width="1.5" stroke-linecap="round" stroke-linejoin="round"/>
</svg>
