<svg width="32" height="32" viewBox="0 0 32 32" fill="none" xmlns="http://www.w3.org/2000/svg">
<path d="M17.6795 4.79988L6.73285 16.3865C6.31952 16.8265 5.91952 17.6932 5.83952 18.2932L5.34618 22.6132C5.17285 24.1732 6.29285 25.2399 7.83952 24.9732L12.1329 24.2399C12.7329 24.1332 13.5728 23.6932 13.9862 23.2399L24.9328 11.6532C26.8262 9.65321 27.6795 7.37322 24.7328 4.58655C21.7995 1.82655 19.5728 2.79988 17.6795 4.79988Z" fill="#EDE9F3" stroke="#482084" stroke-width="1.6" stroke-miterlimit="10" stroke-linecap="round" stroke-linejoin="round"/>
<path d="M15.8535 6.73267C16.4268 10.4127 19.4135 13.226 23.1202 13.5993L15.8535 6.73267Z" fill="#EDE9F3"/>
<path d="M15.8535 6.73267C16.4268 10.4127 19.4135 13.226 23.1202 13.5993" stroke="#482084" stroke-width="1.6" stroke-miterlimit="10" stroke-linecap="round" stroke-linejoin="round"/>
<path d="M4 29.3339H28" stroke="#482084" stroke-width="1.6" stroke-miterlimit="10" stroke-linecap="round" stroke-linejoin="round"/>
</svg>
