<svg width="32" height="32" viewBox="0 0 32 32" fill="none" xmlns="http://www.w3.org/2000/svg">
<rect width="32" height="32" fill="#1E1E1E"/>
<g id="Web Page">
<rect width="1440" height="3239" transform="translate(-160 -657)" fill="white"/>
<g id="Empower Role Tabs V2 Employee Web">
<rect width="1440" height="929" transform="translate(-160 -518)" fill="white"/>
<g id="Content + Tabs">
<g id="Content">
<g id="Benefits">
<g id="Frame 2504">
<mask id="path-1-inside-1_0_1" fill="white">
<path d="M0 -32H247V80H0V-32Z"/>
</mask>
<path d="M0 -31H247V-33H0V-31ZM247 79H0V81H247V79Z" fill="#A4C7FF" mask="url(#path-1-inside-1_0_1)"/>
<g id="Frame 2505">
<g id="programming-arrows">
<path id="Vector" d="M25.3335 21.3333V8.66667C25.3335 7.2 24.1335 6 22.6668 6H15.3335" stroke="#3A86FF" stroke-width="1.6" stroke-linecap="round" stroke-linejoin="round"/>
<path id="Vector_2" d="M18.6665 2.66663L14.6665 5.99996L18.6665 9.33329" stroke="#3A86FF" stroke-width="1.6" stroke-linecap="round" stroke-linejoin="round"/>
<path id="Vector_3" d="M25.3335 29.3334C27.5426 29.3334 29.3335 27.5425 29.3335 25.3334C29.3335 23.1242 27.5426 21.3334 25.3335 21.3334C23.1244 21.3334 21.3335 23.1242 21.3335 25.3334C21.3335 27.5425 23.1244 29.3334 25.3335 29.3334Z" fill="#C8DDFF" fill-opacity="0.55" stroke="#3A86FF" stroke-width="1.6" stroke-linecap="round" stroke-linejoin="round"/>
<path id="Vector_4" d="M6.6665 10.6666V23.3333C6.6665 24.8 7.8665 26 9.33317 26H16.6665" stroke="#3A86FF" stroke-width="1.6" stroke-linecap="round" stroke-linejoin="round"/>
<path id="Vector_5" d="M13.3335 29.3333L17.3335 26L13.3335 22.6666" stroke="#3A86FF" stroke-width="1.6" stroke-linecap="round" stroke-linejoin="round"/>
<path id="Vector_6" d="M6.6665 10.6666C8.87564 10.6666 10.6665 8.87577 10.6665 6.66663C10.6665 4.45749 8.87564 2.66663 6.6665 2.66663C4.45736 2.66663 2.6665 4.45749 2.6665 6.66663C2.6665 8.87577 4.45736 10.6666 6.6665 10.6666Z" fill="#C8DDFF" fill-opacity="0.55" stroke="#3A86FF" stroke-width="1.6" stroke-linecap="round" stroke-linejoin="round"/>
</g>
</g>
</g>
</g>
</g>
</g>
</g>
</g>
</svg>
