<svg width="32" height="32" viewBox="0 0 32 32" fill="none" xmlns="http://www.w3.org/2000/svg">
<path d="M23.9734 14.3867V19.72C23.9734 20.0667 23.9601 20.4 23.9201 20.72C23.6134 24.32 21.4934 26.1066 17.5868 26.1066H17.0534C16.7201 26.1066 16.4001 26.2667 16.2001 26.5333L14.6001 28.6667C13.8934 29.6133 12.7467 29.6133 12.0401 28.6667L10.4401 26.5333C10.2667 26.3067 9.88008 26.1066 9.58675 26.1066H9.05343C4.80009 26.1066 2.66675 25.0533 2.66675 19.72V14.3867C2.66675 10.48 4.46676 8.36001 8.05343 8.05334C8.37343 8.01334 8.70676 8 9.05343 8H17.5868C21.8401 8 23.9734 10.1333 23.9734 14.3867Z" fill="#EDE9F3" stroke="#482084" stroke-width="1.6" stroke-miterlimit="10" stroke-linecap="round" stroke-linejoin="round"/>
<path d="M29.3064 9.05306V14.3864C29.3064 18.3064 27.5064 20.4131 23.9198 20.7197C23.9598 20.3997 23.9731 20.0664 23.9731 19.7197V14.3864C23.9731 10.1331 21.8398 7.99972 17.5864 7.99972H9.0531C8.70643 7.99972 8.3731 8.01306 8.0531 8.05306C8.35977 4.46639 10.4798 2.66638 14.3864 2.66638H22.9198C27.1731 2.66638 29.3064 4.79973 29.3064 9.05306Z" fill="#EDE9F3" stroke="#482084" stroke-width="1.6" stroke-miterlimit="10" stroke-linecap="round" stroke-linejoin="round"/>
<path fill-rule="evenodd" clip-rule="evenodd" d="M17.9943 17.6667H18.0063H17.9943Z" fill="#EDE9F3"/>
<path d="M17.9943 17.6667H18.0063" stroke="#482084" stroke-width="1.6" stroke-linecap="round" stroke-linejoin="round"/>
<path fill-rule="evenodd" clip-rule="evenodd" d="M13.327 17.6667H13.339H13.327Z" fill="#EDE9F3"/>
<path d="M13.327 17.6667H13.339" stroke="#482084" stroke-width="1.6" stroke-linecap="round" stroke-linejoin="round"/>
<path fill-rule="evenodd" clip-rule="evenodd" d="M8.66067 17.6667H8.67267H8.66067Z" fill="#EDE9F3"/>
<path d="M8.66067 17.6667H8.67267" stroke="#482084" stroke-width="1.6" stroke-linecap="round" stroke-linejoin="round"/>
</svg>
