<svg width="33" height="32" viewBox="0 0 33 32" fill="none" xmlns="http://www.w3.org/2000/svg">
<rect x="0.5" width="32" height="32" rx="16" fill="#F3F3F5"/>
<circle cx="16.75" cy="16.6561" r="8.125" fill="#C7C5CE" fill-opacity="0.55"/>
<path d="M17.0109 9.97284H16.0243C15.4816 9.97284 15.0376 9.52883 15.0376 8.98616V7.99949C15.0376 7.45682 15.4816 7.01282 16.0243 7.01282H17.0109C17.5536 7.01282 17.9976 7.45682 17.9976 7.99949V8.98616C17.9976 9.52883 17.5536 9.97284 17.0109 9.97284Z" stroke="#241042" stroke-width="1.21875" stroke-linecap="round" stroke-linejoin="round"/>
<path d="M7.88511 18.8589H8.87178C9.41445 18.8589 9.85846 18.4149 9.85846 17.8722V16.8855C9.85846 16.3429 9.41445 15.8988 8.87178 15.8988H7.88511C7.34244 15.8988 6.89844 16.3429 6.89844 16.8855V17.8722C6.89844 18.4149 7.34244 18.8589 7.88511 18.8589Z" stroke="#241042" stroke-width="1.21875" stroke-linecap="round" stroke-linejoin="round"/>
<path d="M25.1128 18.8589H24.1261C23.5834 18.8589 23.1394 18.4149 23.1394 17.8722V16.8855C23.1394 16.3429 23.5834 15.8988 24.1261 15.8988H25.1128C25.6554 15.8988 26.0994 16.3429 26.0994 16.8855V17.8722C26.0994 18.4149 25.6554 18.8589 25.1128 18.8589Z" stroke="#241042" stroke-width="1.21875" stroke-linecap="round" stroke-linejoin="round"/>
<path d="M14.5803 7.97314C10.7985 8.42728 7.86035 11.6869 7.86035 15.653" stroke="#241042" stroke-width="1.21875" stroke-linecap="round" stroke-linejoin="round"/>
<path d="M25.1401 15.653C25.1401 11.697 22.2045 8.44746 18.4202 7.97314" stroke="#241042" stroke-width="1.21875" stroke-linecap="round" stroke-linejoin="round"/>
<path d="M16.5 16.5289C17.5294 16.5289 18.364 15.6943 18.364 14.6649C18.364 13.6354 17.5294 12.8009 16.5 12.8009C15.4705 12.8009 14.636 13.6354 14.636 14.6649C14.636 15.6943 15.4705 16.5289 16.5 16.5289Z" stroke="#241042" stroke-width="1.21875" stroke-linecap="round" stroke-linejoin="round"/>
<path d="M19.7 21.0566C19.7 19.6166 18.268 18.4486 16.5 18.4486C14.732 18.4486 13.3 19.6166 13.3 21.0566" stroke="#241042" stroke-width="1.21875" stroke-linecap="round" stroke-linejoin="round"/>
</svg>
