<svg width="33" height="32" viewBox="0 0 33 32" fill="none" xmlns="http://www.w3.org/2000/svg">
<rect x="0.5" width="32" height="32" rx="16" fill="#F3F3F5"/>
<path d="M13.6999 13.6001C15.2463 13.6001 16.4999 12.3465 16.4999 10.8001C16.4999 9.25372 15.2463 8.00012 13.6999 8.00012C12.1535 8.00012 10.8999 9.25372 10.8999 10.8001C10.8999 12.3465 12.1535 13.6001 13.6999 13.6001Z" stroke="#241042" stroke-width="1.2" stroke-linecap="round" stroke-linejoin="round"/>
<path d="M8.8999 20.4001C8.8999 17.7464 11.3422 15.6001 14.3491 15.6001C14.958 15.6001 15.548 15.6892 16.0999 15.8538" stroke="#241042" stroke-width="1.2" stroke-linecap="round" stroke-linejoin="round"/>
<path d="M15.0999 20.0402V19.1602C15.0999 18.6402 15.5249 18.2102 16.0499 18.2102C16.9549 18.2102 17.3249 17.5702 16.8699 16.7852C16.6099 16.3352 16.7649 15.7502 17.2199 15.4902L18.0849 14.9952C18.4799 14.7602 18.9899 14.9002 19.2249 15.2952L19.2799 15.3902C19.7299 16.1752 20.4699 16.1752 20.9249 15.3902L20.9799 15.2952C21.2149 14.9002 21.7249 14.7602 22.1199 14.9952L22.9849 15.4902C23.4399 15.7502 23.5949 16.3352 23.3349 16.7852C22.8799 17.5702 23.2499 18.2102 24.1549 18.2102C24.6749 18.2102 25.1049 18.6352 25.1049 19.1602V20.0402C25.1049 20.5602 24.6799 20.9902 24.1549 20.9902C23.2499 20.9902 22.8799 21.6302 23.3349 22.4152C23.5949 22.8702 23.4399 23.4502 22.9849 23.7102L22.1199 24.2052C21.7249 24.4402 21.2149 24.3002 20.9799 23.9052L20.9249 23.8102C20.4749 23.0252 19.7349 23.0252 19.2799 23.8102L19.2249 23.9052C18.9899 24.3002 18.4799 24.4402 18.0849 24.2052L17.2199 23.7102C16.7649 23.4502 16.6099 22.8652 16.8699 22.4152C17.3249 21.6302 16.9549 20.9902 16.0499 20.9902C15.5249 20.9902 15.0999 20.5602 15.0999 20.0402Z" fill="#C7C5CE" fill-opacity="0.55" stroke="#241042" stroke-width="1.2" stroke-miterlimit="10" stroke-linecap="round" stroke-linejoin="round"/>
<path d="M20.0999 21.1002C20.9283 21.1002 21.5999 20.4286 21.5999 19.6002C21.5999 18.7718 20.9283 18.1002 20.0999 18.1002C19.2714 18.1002 18.5999 18.7718 18.5999 19.6002C18.5999 20.4286 19.2714 21.1002 20.0999 21.1002Z" fill="white" stroke="#241042" stroke-width="1.2" stroke-miterlimit="10" stroke-linecap="round" stroke-linejoin="round"/>
</svg>
